<svg enable-background="new 51.588 395.448 930.65 232.056" height="232.056" viewBox="51.588 395.448 930.65 232.056" width="930.65" xmlns="http://www.w3.org/2000/svg"><g fill="none"><path d="m-133.689-2.198h1304.566v1003.185c.129.646-.13.904-.518 1.034-434.812 0-869.753 0-1304.695 0 0-334.223 0-668.445 0-1002.667.001-.647.001-1.423.647-1.552zm281.6 408.566c-2.198-.389-5.301-2.198-7.499-3.232-10.473-4.655-22.109-9.051-38.012-7.5-29.867 2.974-52.751 33.358-34.263 64.776-5.56 11.895-12.153 22.885-17.196 35.297 12.153 8.404 31.547 18.23 52.493 16.55 11.507-.905 19.782-5.689 28.315-10.214.258 2.585-1.422 5.43 0 7.498 14.352.905 32.323.905 46.545 0 2.069-6.723 2.586-16.808 3.75-24.048.388-2.327-.646-6.594 2.715-6.982.258 8.792-2.974 21.593-2.715 30.514 13.446 2.068 32.711 1.034 47.062.517 1.81-6.076 1.293-14.352 3.232-20.299 12.024 19.652 47.321 29.221 71.758 18.23 5.43-2.456 9.568-6.465 14.481-8.533-.776 2.974-.905 6.594-1.035 10.214 12.93 2.457 30.255.388 44.994 1.034 2.457.259 2.457-1.81 3.75-2.715 0 2.974 2.068 2.327 3.749 2.715 6.206 1.164 14.352 0 21.979 0 22.239 0 46.158-.388 66.328.518-.259 1.681-1.035 2.845-1.035 4.784-32.452-.259-66.197 1.551-100.072 1.551-32.711 0-66.974-.904-99.556-2.197-31.418-1.164-64.129-3.232-99.556-2.198-15.127.518-33.487 1.163-47.062 3.749-10.343 1.939-34.392 6.077-32.711 18.23.905 6.724 13.834 7.629 20.816 7.499 18.877-.517 36.849-14.739 58.311-8.533-.646 7.37-16.937 2.715-17.713 12.283-.517 6.076 5.818 8.146 10.731 8.533 11.507.905 18.747-2.974 29.479-3.232 8.146-.129 18.36 1.422 23.531 5.301 3.879 2.974 5.172 8.921 11.249 12.8 2.715 1.681 7.37 2.974 10.214 3.232 18.618 2.069 43.959-15.256 62.061-4.267-11.249 17.196 17.584 12.93 31.03 13.964 6.594.517 21.333 3.879 24.565 6.981 2.974 2.845 3.75 9.051 7.499 13.317 7.499 8.792 20.688 10.603 35.297 14.48 11.249 2.975 22.885 9.31 34.263 10.215 16.421 1.293 37.366-4.655 28.315-15.516 8.533.259 19.781-5.947 12.283-11.248 7.11 2.068 14.48 3.749 18.229 9.05-7.24 19.265 27.41 21.98 36.461 12.283.646-2.327.129-5.947 1.034-8.016 6.206-2.328 14.739-5.689 23.015-3.75 4.783 1.164 6.853 6.335 11.766 8.533 7.757 3.491 19.265 1.034 28.314 1.034 16.809 0 38.529 2.198 51.977-2.715 5.947-2.198 12.67-6.594 11.248-11.248-.775-2.716-6.594-3.104-11.248-4.784-3.491-1.293-8.534-2.974-8.534-8.017 0-10.731 20.688-11.248 34.263-10.731 14.869.646 28.703 2.198 42.796 2.198 21.463 0 44.089.905 65.811 1.552 8.404.259 15.903-.388 16.55-5.947.775-6.336-4.784-6.853-9.051-9.051 7.37.259 12.671-1.681 16.55-4.784 1.293-2.197-1.035-4.396-.518-5.301 12.93 1.422 26.376.776 38.529-2.198 8.533-2.068 15.645-7.628 23.531-7.499 12.8.13 32.453 16.162 39.047 0 1.034-2.585.646-5.56 1.551-8.016 1.035-2.845 3.879-5.818 6.465-6.982 7.111-3.231 13.964 0 21.98.518 15.256 1.034 35.297-1.034 35.813-8.533.388-4.525-6.335-8.146-11.766-9.697-23.401-6.335-54.69-4.396-79.773-3.232-6.594.259-12.283 1.164-18.23 1.552-20.17 1.422-41.374 0-62.061 0-20.945 0-41.115-.129-61.026-1.034-41.115-1.939-81.842 1.422-122.053-1.034 0-1.293 0-2.457 0-3.75 3.232-1.939 8.663-1.034 13.447-1.034 5.301 0 10.343.259 14.48-.517 2.456-5.302 2.068-13.705 12.283-11.249.388 3.75.388 7.758 1.034 11.249 13.316-.646 32.452 2.586 45.511.517 1.811-.259 2.974-.775 4.267-1.552 7.499 2.974 16.55 4.396 25.212 3.75 15.257-1.164 27.41-10.344 34.263-17.066 0 5.171-1.939 10.214-1.034 14.48 14.739.905 32.97.905 47.58 0 2.456-16.809 4.267-36.849 6.981-53.01.259-1.811-1.163-6.595 2.716-6.465-.776 18.877-4.914 39.046-6.465 58.828 8.146 1.939 16.938 1.034 25.729 1.034h81.843c2.069-.129 2.457-1.81 3.232-3.232-.388 2.198 1.164 2.457 2.198 3.232h38.529c3.879 0 9.051 1.293 11.766-1.552.646-3.361-2.198-5.947-3.75-8.533-5.172-9.18-9.955-18.23-14.48-27.28 8.533-5.818 15.773-12.154 17.066-24.049 1.552-13.964-3.749-24.565-10.214-31.03-15.516-15.645-49.261-11.248-80.809-11.248-42.666 0-86.497 0-122.569 0-2.974-1.035-2.068 3.62-3.75 2.197-30.642-12.024-62.577 2.069-68.008 27.281-2.327-9.697-3.49-20.429-5.947-29.996-15.903 0-31.806 0-47.709 0-5.688 11.766-12.153 25.212-17.713 36.978-1.939 4.138-2.716 9.18-5.947 11.766-.518-18.747 2.068-38.788-.518-56.242-16.291 0-32.452 0-48.743 0-3.62 5.431-4.913 13.317-8.534 18.747-.904-6.076-1.292-12.67-2.715-18.229-15.386-1.293-32.97-.13-49.261-.518-2.844 6.594-4.008 14.868-6.981 21.463 0-4.655 1.164-8.017 1.034-12.8-23.144-.905-50.165-.905-73.309 0-1.164 4.267-1.164 9.567-2.198 13.963-2.974-2.715-5.043-5.688-8.533-8.016-16.032-10.473-47.192-5.56-71.24-5.947-2.069 5.688-1.682 14.093-3.232 20.299-8.404-11.249-23.661-21.722-42.279-23.015-12.412-.905-25.212 2.069-34.78 7.499-3.103 1.681-5.818 5.172-9.05 5.947 0-3.879 1.293-7.499.517-10.73-14.481-1.293-31.16-.13-46.545-.518-2.198 6.465-2.586 16.55-3.75 23.531-.388 2.068.776 6.724-2.715 6.465-.258-8.792 2.457-19.265 2.715-29.479-11.764-2.845-29.994 2.068-42.665-.388zm479.159 187.862c.646 4.525 8.792 6.206 14.998 6.981 6.853.905 15.128 1.034 21.98.518 7.499-.518 22.238-2.845 21.979-9.051-.259-5.301-12.153-6.465-18.747-6.981-9.438-.646-21.463-.388-25.213 0-6.592.517-16.031.647-14.997 8.533z"/><path d="m69.689 417.616c6.723-13.834 30.643-24.178 48.743-18.747-24.178-1.681-37.624 7.24-48.743 18.747z"/><path d="m537.083 399.903c-1.939 2.844-6.724 1.551-10.214 1.551-10.603 0-24.178-.388-34.263.518 0-.388 0-.775 0-1.034-.13-.646.129-.905.517-1.034 14.739-.001 29.35-.001 43.96-.001z"/><path d="m597.592 399.903c-2.198 2.715-7.369 3.103-10.731 3.103-10.86 0-24.565 1.034-34.521.388 0-.388.388-2.068.388-2.456-.13-.646.129-.905.517-1.034 14.738-.001 29.479-.001 44.347-.001z"/><path d="m144.162 413.221c-3.75 8.921-8.663 16.679-12.283 25.729-4.008-1.939-13.188-10.86-23.014-8.533-2.457.518-5.042 2.845-4.784 5.301.258 3.621 6.464 4.784 12.283 6.465 13.834 3.879 26.117 10.603 24.048 30.514-1.81 18.101-19.782 30.513-39.046 31.547-15.257.905-28.186-5.301-40.21-11.248 3.491-9.051 8.016-17.066 12.283-25.212.905-1.552 2.586 1.163 3.75 2.197 1.422 1.293 3.103 3.104 4.267 3.75 4.784 2.845 23.919 8.662 24.048-1.034.129-5.56-9.567-6.982-14.998-8.533-7.37-2.069-12.541-4.655-15.515-8.017-9.697-10.99-6.206-29.608 2.198-39.047 14.48-16.421 46.415-16.809 66.973-3.879z"/><path d="m289.229 406.885c-12.154.518-24.049 1.681-33.229 5.947-6.335 2.974-10.86 8.017-16.549 11.249 3.75-6.077 10.731-10.86 18.23-13.964 8.533-3.62 20.428-4.913 31.548-3.232z"/><path d="m753.907 423.951c-3.75 4.396-7.24 13.835-10.731 20.3-2.715-.776-4.525-4.009-9.051-5.948-4.913-1.939-16.679-3.62-16.032 3.232.388 4.396 9.826 4.913 15.516 6.982 10.989 4.008 18.488 10.602 17.713 25.212-1.034 17.584-17.713 29.607-35.814 30.513-12.541.646-23.272-3.879-33.745-8.533-1.034 1.164.775 4.138.518 6.465-10.731 0-21.463 0-32.065 0-1.034-3.232-.129-8.404-1.034-11.766-6.981 0-13.964 0-20.816 0-2.068 3.361-2.974 8.016-4.783 11.766-9.826 0-19.652 0-29.479 0 .388 7.499-3.104 11.766.517 17.196 3.62 5.301 14.739 1.81 15.516 6.981.775 5.172-7.629 3.879-9.697 7.499 2.715 4.913 9.567 4.008 13.964 3.749 10.473-.646 22.367-5.56 32.064-6.464 9.18-.905 16.549 1.938 24.565 3.749 5.56 1.293 12.412 2.068 13.964 7.499-5.043 4.913-13.059 4.784-20.816 4.267-5.172-.388-10.085-1.939-14.48-.518-4.267 1.423-8.275 4.009-12.801 5.948-8.533 3.49-19.006 5.56-28.961 8.016-4.396 1.034-10.344 1.034-12.8 5.302 1.422 4.913 10.343 2.456 11.248 8.016-5.818 5.043-15.515 2.198-24.565 1.552-10.731-.776-22.368 2.068-30.514-1.034 0-4.009 4.009-3.879 4.267-7.499-2.456-3.62-8.791-3.362-11.248-6.982 4.138-10.86 20.945-6.335 34.263-5.301 7.499.518 15.773 1.034 17.713-5.947-8.404-6.981-34.909 4.396-38.012-9.051 3.749-3.361 12.024-2.198 13.446-8.016-1.293-5.302-7.499-2.586-10.731-6.465-2.974-3.491-1.034-12.542-.518-19.265 1.423-19.523 2.198-45.253 4.784-58.828-2.456 4.654-3.232 9.696-4.784 14.48-4.524 13.705-11.248 27.151-16.549 40.728-7.37 0-14.61 0-21.979 0-1.811-18.102-5.431-34.521-4.784-55.079-2.068 2.457-1.164 5.818-1.552 8.533-1.163 8.017-3.232 16.42-5.301 24.565-2.586 10.474-6.724 21.075-8.017 31.548-.258 1.811-.129 3.879 0 5.947-1.293 4.784-8.792 5.431-8.533 10.731.259 6.981 16.032 6.724 20.299 11.249 6.724 7.24 1.552 18.101-5.947 21.979-5.56 2.845-20.687 6.206-30.513 6.981-8.922.646-15.645.646-19.265-3.749 2.974-4.396 8.533-1.034 12.8-2.198 4.138-1.164 10.343-6.594 10.214-11.766-.259-6.206-7.24-7.758-13.964-9.051-5.171-1.034-15.256-2.327-14.48-8.533.905-7.499 16.938-1.81 18.747-9.697-.517-3.878-4.913-4.137-5.947-7.498 10.473-36.461 21.463-72.404 31.548-109.253h36.978c2.068 16.161 5.56 34.521 4.267 50.812 2.069-4.396 2.845-9.05 4.267-13.446 4.138-12.929 9.568-25.082 14.481-37.495h36.46c.776 27.152-.517 56.89 0 85.593 12.8-25.471 24.178-52.234 36.461-78.223h36.461c4.654 25.212 9.309 50.295 13.963 75.507 3.491-5.688 6.077-12.412 9.697-18.23 1.293-1.681 2.327 1.423 3.232 2.198 3.232 2.586 9.18 6.336 14.998 6.982 5.56.646 10.86-.259 11.248-4.267.518-5.431-6.594-6.465-10.731-7.499-12.929-3.362-24.048-9.438-22.497-27.281 2.716-29.608 43.313-36.202 68.009-20.299.775-1.811.775-4.267 1.034-6.465 20.17.388 41.762-.646 61.026.518-.905 9.18-2.198 17.842-3.232 26.764-6.077.258-8.146-.518-13.446-.518-4.009 19.136-4.784 41.633-8.533 61.026-10.473 0-21.075 0-31.548 0 2.198-20.687 4.654-40.986 7.499-61.026-5.301 0-9.826.905-15.516.518.641-5.559.771-12.153 2.064-17.713zm-110.803 24.178c-2.328 7.629-5.561 14.74-8.017 21.98h11.766c0-10.085-2.457-19.136-1.034-28.962-1.94 1.811-2.069 4.526-2.715 6.982z"/><path d="m732.444 406.885c-4.008 1.164-8.921 1.164-12.541 1.422-16.162 1.035-22.627 8.146-34.004 16.291 7.887-13.447 24.048-20.946 46.545-17.713z"/><path d="m668.832 407.402c-1.939 2.844-7.758 3.103-11.248 3.103-10.344 0-24.954-.775-32.064-.905 0-.517 0-1.034 0-1.551 13.316-1.423 28.96-.259 43.312-.647z"/><path d="m147.911 408.953c11.895-1.293 26.247-.129 39.046-.517-1.422 2.586-5.301 1.552-8.016 1.552-8.533.258-24.694.647-31.03-1.035z"/><path d="m196.008 408.437h41.244c-1.551 2.715-5.689 1.552-9.05 1.552-7.758 0-23.531 1.551-30.513 0-1.035-.131-1.422.516-1.681-1.552z"/><path d="m331.507 408.953c-.129-.517.259-.517.518-.517 15.903 1.422 34.909-1.939 49.777 0 .776.129 3.232.129 3.75 1.552-15.903-.389-36.849.258-52.493 0-1.164.388-.647-.905-1.552-1.035z"/><path d="m413.996 408.437h67.491c-4.009 2.845-10.085 1.552-15.516 1.552-10.731 0-22.109 0-33.745 0-5.818 0-12.283.904-16.55 0-1.162-.131-1.551.516-1.68-1.552z"/><path d="m750.157 408.437c56.76 1.163 115.071-1.552 172.348 0 1.811 0 3.491.259 5.301.517 1.034.13 3.75-1.034 4.267 1.035-48.743 0-105.503 3.62-157.995 1.551-8.534-.388-14.481-.775-21.204-1.163-2.069-.13-5.043 3.103-5.56.646 2.585 1.68 1.421-1.681 2.843-2.586z"/><path d="m274.748 412.703c23.014-2.457 39.175 8.274 47.063 21.979 3.49 5.947 6.981 16.679 5.947 28.315-2.327 25.6-25.083 41.374-48.227 41.244-25.083-.129-45.511-16.679-48.226-38.012-1.81-13.705 3.75-29.221 9.05-35.814 6.595-8.015 18.231-15.902 34.393-17.712zm-2.716 62.707c26.893 11.507 33.746-38.658 5.301-33.745-14.868 2.586-20.299 27.28-5.301 33.745z"/><path d="m182.174 414.384c-.259 10.731-2.069 19.652-3.232 29.479 5.042 1.293 12.283.13 18.23.518 2.457-9.051 2.457-20.299 4.267-29.996h31.547c-3.362 29.35-6.853 58.44-10.731 87.272-9.309.905-22.238.905-31.547 0 1.034-10.602 2.327-20.815 3.75-31.03-5.042-1.163-12.283-.259-18.23-.517-2.585 9.696-2.327 22.367-4.784 32.064-10.343 0-20.687 0-31.03 0 2.457-27.539 6.982-57.665 10.214-86.238 0-.905.388-1.423 1.034-1.552z"/><path d="m388.267 467.394c5.301 12.283 13.059 22.239 18.23 34.78-11.249 0-22.497 0-33.745 0-4.396-10.603-8.404-21.592-11.766-33.229-.905 11.249-.776 23.531-3.232 33.229-10.344 0-20.688 0-31.03 0 2.327-27.669 6.853-57.665 10.214-86.238 0-.905.388-1.423 1.034-1.552 20.04 1.811 43.184-3.749 57.276 3.75 11.119 5.947 21.075 28.961 8.533 42.278-3.619 3.879-8.274 5.689-15.514 6.982zm-24.049-13.963c16.421 4.267 19.911-19.265 1.552-15.516-.129 5.56-1.422 9.956-1.552 15.516z"/><path d="m476.574 414.384c-.389 8.146-1.682 15.516-2.716 23.015-8.403 0-16.808 0-25.212 0-1.293 2.327-1.034 6.076-1.552 9.05 6.853 1.293 15.903.259 23.531.518-.775 7.24-1.81 14.222-2.715 21.463-7.628 0-15.386 0-23.015 0-1.681 2.068-1.163 6.335-1.551 9.696 7.887 1.293 17.972.13 26.764.518-1.423 7.499-1.939 15.903-3.232 23.531-19.395 0-38.917 0-58.312 0 3.491-29.479 6.336-59.604 11.249-87.79 19.007-.001 37.884-.001 56.761-.001z"/><path d="m878.675 414.384c-.905 7.887-1.552 15.903-3.232 23.015-8.404 0-16.808 0-25.212 0-.775 2.715-.905 5.817-1.034 9.05 6.723 1.293 15.902.13 23.531.518-1.164 6.853-2.198 13.834-2.716 21.463-7.887 0-15.645 0-23.531 0-1.293 2.456-.646 6.853-1.551 9.696 7.887 1.293 17.972.13 26.764.518-1.035 7.887-1.423 16.42-3.232 23.531-19.265 0-38.529 0-57.794 0 2.715-28.057 6.723-59.346 10.731-87.79 19.005-.001 38.14-.001 57.276-.001z"/><path d="m934.271 467.394c5.818 12.024 13.059 22.627 18.747 34.78-11.377 0-22.885 0-34.262 0-3.75-11.119-8.663-20.945-11.249-33.229-1.552 2.327-.388 6.077-.517 9.051-.259 8.016-2.069 16.808-2.716 24.049-10.473 0-21.074 0-31.547 0 3.231-29.608 6.853-58.829 10.731-87.79 20.04.904 50.553-3.362 62.577 6.981 14.999 12.8 13.319 44.477-11.764 46.158zm-21.851-29.479c-1.034 4.784-1.163 10.603-2.197 15.516 16.936 3.49 20.04-19.136 2.197-15.516z"/><path d="m544.064 421.365c1.293.13.259 2.328 0 2.716-1.551-.518.259-1.81 0-2.716z"/><path d="m192.388 437.398c.646.129.388 1.034.518 1.551-1.552.518-4.525 2.069-4.784-.517 1.292-.387 3.232-.258 4.266-1.034z"/></g><path d="m365.77 437.915c18.23-3.749 14.739 19.782-1.552 15.516.13-5.56 1.423-9.956 1.552-15.516z" fill="#fff"/><path d="m910.223 453.431c1.034-4.913 1.034-10.731 2.197-15.516 17.843-3.62 14.739 19.006-2.197 15.516z" fill="#fff"/><path d="m277.463 441.665c28.444-5.043 21.592 45.252-5.301 33.745-15.128-6.465-9.697-31.159 5.301-33.745zm9.567 11.248c-6.465-11.507-24.048 5.947-12.283 14.998 10.473 4.008 16.162-8.145 12.283-14.998z" fill="#fff"/><path d="m645.818 441.147c-1.293 9.697 1.163 18.877 1.034 28.962-3.879 0-7.887 0-11.766 0 2.456-7.111 5.688-14.223 8.017-21.98.647-2.456.776-5.171 2.715-6.982z" fill="#fff"/><path d="m757.14 449.681c.388 3.491-.776 5.301-.518 8.533-1.939-2.327-2.845-5.688-5.301-7.499 1.94-1.163 4.138-.517 5.819-1.034z" fill="none"/><path d="m601.858 459.248c1.423.776-.388 2.716-.517 3.75-1.681-.905.776-2.327.517-3.75z" fill="none"/><path d="m684.348 467.394c2.198-.258.388 3.104-1.034 2.716.128-1.165 1.034-1.423 1.034-2.716z" fill="none"/><path d="m402.747 470.497c2.586.905.259 5.431.518 7.499-1.552-1.164-1.81-3.491-3.232-4.784.387-1.293 1.939-1.681 2.714-2.715z" fill="none"/><path d="m458.86 516.654c.388 2.974-4.137 2.586-5.301 2.716-2.456.258-6.465 1.551-8.792 1.551-40.728.776-81.842 1.552-122.699 1.552-46.804 0-93.22-4.525-137.567-4.784-31.03-.129-68.396-1.81-90.247 6.595-4.784 1.81-8.404 4.783-12.8 6.464 5.689-7.498 16.291-9.826 26.247-11.766 23.014-4.654 48.614-3.749 77.059-3.749 39.951 0 77.963 2.586 116.105 3.749 26.763.776 53.527.776 79.774 0 13.188-.388 26.505 0 39.563-.517 13.059-.777 25.987-.13 38.658-1.811z" fill="none"/><path d="m936.986 519.24c-27.022-1.163-53.786-.517-81.714 1.939-28.057 2.586-58.311 1.552-86.626 1.552s-56.889-3.491-84.816-2.586c-28.186.905-55.337 1.164-82.488-1.422.775-2.069 3.62-1.035 4.783-1.035 12.542-.388 26.764.259 39.564.518 14.739.259 29.479-1.034 44.477-1.034 30.643 0 62.319 2.198 94.771 2.198h48.743c7.629 0 14.739-1.034 22.497-1.552 26.893-1.939 54.692-1.81 80.809 1.422z" fill="none"/><path d="m508.768 517.172c15.127-.388 31.418.517 44.994 0-1.811 2.845-7.24 3.361-10.731 3.361-4.913 0-10.731-.388-15.257-.775-6.981-.518-13.059-.388-17.454-1.034-1.035-.13-1.424.387-1.552-1.552z" fill="none"/><path d="m254.966 539.022c-.259 4.783 3.491 4.267 3.232 8.016-.388 5.431-8.533 6.465-16.032 5.948-12.67-.905-32.194-6.853-31.547-16.55.388-6.724 14.093-9.567 21.463-10.214 6.723-.518 14.61.904 22.497 1.551 7.499.776 15.386 1.035 21.98 2.198 5.56 1.034 12.024 2.715 20.299 3.75 7.241.904 16.938 1.681 17.066 6.464.259 8.922-24.177 2.586-28.961 1.552-10.215-2.068-21.723-6.852-29.997-2.715z" fill="none"/><path d="m159.677 535.919c-1.422 8.792-10.86 6.206-16.549 9.051 0-4.267 7.111-3.491 11.249-5.301 2.456-1.164 3.102-3.232 5.3-3.75z" fill="none"/><path d="m692.881 542.771c2.068-6.335 13.059-8.016 23.014-6.981 2.975.259 11.637 2.068 11.766 5.947.13 5.56-10.214 5.688-16.549 5.301-7.112-.388-16.033-.258-18.231-4.267z" fill="none"/><path d="m350.771 539.669c-3.232 8.533-21.851 7.499-28.314 2.715-1.164-6.335 8.403-5.688 14.998-5.301 5.301.129 10.473.517 13.316 2.586z" fill="none"/><path d="m753.907 541.221c-1.423 6.076-15.774 5.43-19.265 1.551.129-7.241 16.549-4.526 19.265-1.551z" fill="none"/><path d="m412.315 557.77c7.24-1.034 24.694 1.293 25.212 9.697.259 5.172-5.689 10.085-11.248 10.731-8.017.905-16.55-4.138-27.281-4.267-5.56 0-11.249 2.586-16.55 1.551-4.267-.775-9.696-5.947-8.533-10.214 1.552-5.818 19.136-2.456 24.049-3.232 5.688-.775 8.662-3.361 14.351-4.266z" fill="none"/><path d="m783.903 561.52c-4.525 4.137-8.017 1.681-11.637 1.551-4.525 0-7.887.905-11.507 1.552.646-5.56 9.051-4.008 15.256-3.62 3.104.258 5.819-.389 7.888.517z" fill="none"/><path d="m288.194 571.733c2.586-2.586-.258 2.974-.517.518-.13-.647.259-.259.517-.518z" fill="none"/><path d="m481.357 577.681c-2.068 7.887-19.911 7.37-24.565 2.198.775-9.051 20.17-5.56 24.565-2.198z" fill="none"/><path d="m598.626 589.964c-4.525 9.567-17.584 6.076-29.996 5.301-6.076-.388-11.507.259-13.963-4.267 5.43-11.507 37.495-11.894 43.959-1.034z" fill="none"/><path d="m642.068 585.697c3.62-.388 15.774-.646 25.213 0 6.594.517 18.488 1.681 18.747 6.981.259 6.206-14.48 8.533-21.979 9.051-6.853.517-15.128.388-21.98-.518-6.206-.775-14.352-2.456-14.998-6.981-1.035-7.886 8.404-8.016 14.997-8.533zm-6.464 2.069c-2.198.518-4.913 1.681-5.948 3.75 3.879-.389 8.404-1.164 14.094-1.552 10.86-.776 24.178 1.81 32.969-1.034-10.99-.518-29.738-3.879-41.115-1.164z" fill="#fff"/><path d="m676.849 588.93c-9.18 3.361-22.238.517-33.099 1.163-5.689.388-10.085 1.034-13.964 1.423.905-2.069 3.62-3.232 5.947-3.75 11.248-2.715 29.996.646 41.116 1.164z" fill="none"/><path d="m456.792 602.246c-5.172 4.009-9.956.646-15.257 1.164-3.103.259-5.43 1.293-7.758.388 3.75-5.042 16.55-1.94 23.015-1.552z" fill="none"/><path d="m191.224 406.885c-.129 10.214-2.974 20.687-2.715 29.479 3.491.259 2.327-4.396 2.715-6.464 1.164-7.111 1.552-17.196 3.75-23.531 15.386.388 32.065-.646 46.545.517.776 3.104-.517 6.724-.517 10.731 3.232-.646 6.077-4.138 9.051-5.947 9.567-5.431 22.368-8.404 34.78-7.499 18.747 1.293 33.875 11.766 42.279 23.014 1.551-6.206 1.034-14.609 3.232-20.299 23.919.388 55.208-4.525 71.24 5.947 3.62 2.327 5.56 5.302 8.533 8.017 1.034-4.396 1.034-9.697 2.198-13.964 23.144-.905 50.165-.905 73.309 0 .13 4.784-1.163 8.146-1.034 12.8 2.845-6.594 4.138-14.868 6.982-21.462 16.29.388 33.874-.646 49.26.517 1.423 5.56 1.811 12.153 2.716 18.23 3.62-5.431 4.913-13.317 8.533-18.747h48.743c2.586 17.454 0 37.494.518 56.242 3.232-2.586 3.879-7.629 5.947-11.766 5.56-11.766 12.024-25.212 17.713-36.978h47.709c2.327 9.567 3.62 20.299 5.947 29.995 5.431-25.212 37.366-39.434 68.009-27.28 1.681 1.422.775-3.232 3.749-2.198h122.57c31.547 0 65.422-4.396 80.808 11.249 6.335 6.464 11.766 17.066 10.214 31.03-1.293 12.023-8.662 18.229-17.066 24.048 4.525 9.051 9.309 18.23 14.48 27.281 1.552 2.715 4.396 5.172 3.75 8.533-2.715 2.845-7.887 1.552-11.766 1.552-11.895 0-26.246 0-38.529 0-1.034-.776-2.586-1.034-2.198-3.232-.775 1.293-1.163 3.103-3.232 3.232-26.893 0-54.432 0-81.842 0-8.792 0-17.584.775-25.729-1.034 1.552-19.911 5.688-40.081 6.465-58.829-3.75-.129-2.328 4.655-2.716 6.465-2.715 16.162-4.396 36.202-6.981 53.01-14.739.905-32.97.905-47.58 0-.775-4.267 1.034-9.309 1.034-14.48-6.853 6.853-19.006 15.903-34.263 17.066-8.662.646-17.713-.775-25.212-3.749-1.422.775-2.456 1.293-4.267 1.552-13.059 2.068-32.193-1.164-45.511-.518-.646-3.491-.646-7.499-1.034-11.248-10.215-2.457-9.826 5.947-12.283 11.248-4.008.905-9.18.518-14.48.518-4.784 0-10.215-.905-13.447 1.034v3.749c40.211 2.586 80.938-.904 122.053 1.035 19.911.904 40.081 1.034 61.026 1.034 20.688 0 41.892 1.422 62.061 0 5.948-.389 11.637-1.293 18.23-1.552 25.083-1.164 56.372-3.104 79.773 3.232 5.431 1.422 12.154 5.172 11.766 9.696-.646 7.629-20.558 9.697-35.813 8.534-8.017-.518-14.869-3.75-21.98-.518-2.586 1.164-5.43 4.008-6.465 6.981-.904 2.457-.517 5.431-1.551 8.017-6.594 16.161-26.246.129-39.047 0-7.887-.129-14.998 5.431-23.531 7.499-12.153 2.974-25.6 3.62-38.529 2.198-.518.904 1.811 3.103.518 5.301-4.008 3.232-9.18 5.042-16.55 4.784 4.396 2.327 9.826 2.715 9.051 9.05-.646 5.56-8.275 6.206-16.55 5.948-21.721-.776-44.348-1.552-65.81-1.552-14.094 0-27.928-1.552-42.796-2.198-13.576-.518-34.263 0-34.263 10.731 0 5.042 5.171 6.723 8.533 8.016 4.654 1.682 10.473 2.069 11.248 4.784 1.423 4.654-5.301 9.051-11.248 11.249-13.317 4.783-35.039 2.715-51.976 2.715-9.181 0-20.688 2.456-28.315-1.034-4.913-2.198-6.982-7.37-11.766-8.533-8.275-1.939-16.809 1.422-23.015 3.749-.904 2.068-.388 5.688-1.034 8.017-9.051 9.696-43.571 6.981-36.46-12.283-3.75-5.431-11.12-7.111-18.23-9.051 7.499 5.302-3.75 11.508-12.283 11.249 9.051 10.86-12.024 16.808-28.315 15.515-11.378-.905-23.014-7.24-34.263-10.214-14.739-3.879-27.927-5.688-35.297-14.48-3.749-4.396-4.525-10.473-7.499-13.317-3.231-3.104-18.101-6.465-24.565-6.981-13.446-1.035-42.279 3.231-31.03-13.964-18.23-10.99-43.442 6.335-62.061 4.267-2.844-.259-7.499-1.552-10.214-3.232-6.077-4.008-7.37-9.826-11.249-12.8-5.172-3.879-15.515-5.56-23.532-5.302-10.602.259-17.972 4.138-29.479 3.232-4.913-.388-11.119-2.456-10.731-8.533.776-9.567 16.938-4.913 17.713-12.282-21.592-6.206-39.435 8.146-58.311 8.533-7.111.129-19.911-.776-20.816-7.499-1.81-12.153 22.238-16.162 32.711-18.23 13.576-2.586 32.065-3.232 47.063-3.75 35.426-1.163 68.137 1.035 99.555 2.198 32.582 1.164 66.845 2.198 99.556 2.198 33.875 0 67.75-1.939 100.073-1.552 0-1.939.775-3.103 1.034-4.783-20.17-1.035-44.219-.518-66.327-.518-7.629 0-15.774 1.164-21.98 0-1.681-.388-3.749.388-3.749-2.715-1.293.775-1.293 2.974-3.75 2.715-14.739-.646-32.064 1.293-44.993-1.034.129-3.62.388-7.111 1.034-10.214-4.913 2.068-9.051 6.076-14.481 8.533-24.437 10.989-59.733 1.422-71.758-18.23-1.81 5.947-1.422 14.222-3.232 20.299-14.352.518-33.616 1.552-47.063-.518-.258-8.921 2.974-21.721 2.715-30.513-3.232.259-2.327 4.525-2.715 6.981-1.164 7.241-1.681 17.455-3.75 24.049-14.352.905-32.194.905-46.545 0-1.422-2.068.259-4.913 0-7.499-8.533 4.525-16.808 9.31-28.315 10.214-20.816 1.552-40.339-8.274-52.493-16.549 5.042-12.542 11.507-23.402 17.196-35.297-18.489-31.419 4.396-61.803 34.262-64.776 15.903-1.551 27.54 2.845 38.012 7.499 2.198.905 5.301 2.716 7.499 3.232 12.024 2.327 30.254-2.586 42.666.388zm559.967 34.78c5.689.388 10.215-.518 15.516-.518-2.845 20.04-5.301 40.34-7.499 61.026h31.548c3.879-19.394 4.525-41.891 8.533-61.026 5.301 0 7.24.775 13.446.518 1.034-8.922 2.327-17.584 3.232-26.764-19.265-1.293-40.856-.13-61.026-.518-.388 2.198-.388 4.654-1.034 6.465-24.565-15.903-65.293-9.31-68.008 20.299-1.681 17.843 9.567 23.919 22.497 27.281 4.137 1.034 11.248 2.068 10.73 7.499-.388 4.008-5.688 4.913-11.248 4.267-5.818-.646-11.766-4.396-14.998-6.982-.775-.646-1.939-3.879-3.232-2.198-3.491 5.818-6.076 12.412-9.697 18.23-4.654-25.212-9.309-50.295-13.963-75.507-12.154 0-24.308 0-36.461 0-12.283 25.988-23.66 52.752-36.461 78.223-.517-28.703.776-58.44 0-85.592-12.153 0-24.307 0-36.46 0-4.913 12.412-10.344 24.565-14.481 37.494-1.422 4.396-2.327 9.051-4.267 13.447 1.293-16.291-2.198-34.651-4.267-50.812-12.282 0-24.565 0-36.978 0-10.085 36.849-21.075 72.792-31.548 109.253 1.035 3.361 5.302 3.62 5.948 7.498-1.811 7.888-17.843 2.198-18.748 9.697-.775 6.206 9.31 7.499 14.481 8.533 6.723 1.293 13.705 2.845 13.963 9.051.13 5.172-6.076 10.731-10.214 11.766-4.396 1.164-9.956-2.198-12.8 2.198 3.62 4.396 10.473 4.396 19.265 3.749 9.826-.775 24.953-4.137 30.513-6.981 7.499-3.879 12.671-14.61 5.947-21.979-4.267-4.525-20.169-4.267-20.299-11.249-.129-5.301 7.24-5.947 8.533-10.731-.129-1.939-.258-4.137 0-5.947 1.293-10.473 5.431-21.204 8.017-31.548 2.068-8.274 4.138-16.679 5.301-24.565.388-2.715-.388-6.076 1.552-8.533-.646 20.558 2.974 36.978 4.784 55.079h21.979c5.431-13.576 12.024-27.022 16.55-40.728 1.551-4.784 2.327-9.826 4.783-14.48-2.586 13.575-3.361 39.434-4.783 58.828-.518 6.723-2.457 15.773.517 19.265 3.232 3.879 9.438 1.163 10.731 6.465-1.293 5.817-9.567 4.654-13.446 8.016 3.103 13.446 29.608 2.069 38.012 9.051-1.81 6.853-10.214 6.465-17.713 5.947-13.317-.905-30.125-5.56-34.263 5.301 2.457 3.62 8.792 3.362 11.249 6.982-.259 3.62-4.396 3.49-4.267 7.499 8.146 3.103 19.781.388 30.513 1.034 9.051.646 18.877 3.491 24.565-1.552-.905-5.56-9.826-3.103-11.248-8.016 2.586-4.268 8.533-4.268 12.8-5.302 9.955-2.456 20.428-4.525 28.962-8.016 4.654-1.939 8.533-4.396 12.8-5.948 4.396-1.422 9.309.259 14.48.518 7.887.518 15.773.646 20.816-4.267-1.552-5.431-8.404-6.206-13.964-7.499-8.016-1.81-15.386-4.654-24.565-3.749-9.697.904-21.722 5.688-32.064 6.464-4.267.259-11.119 1.164-13.964-3.749 2.068-3.62 10.473-2.327 9.697-7.499s-12.024-1.681-15.516-6.981c-3.62-5.302-.129-9.568-.517-17.196h29.479c1.81-3.75 2.715-8.404 4.783-11.766h20.816c.905 3.361 0 8.533 1.034 11.766h32.065c.258-2.198-1.552-5.172-.518-6.465 10.473 4.654 21.204 9.18 33.745 8.533 18.102-.904 34.909-12.929 35.814-30.513.775-14.61-6.724-21.075-17.713-25.212-5.689-2.069-15.128-2.586-15.516-6.982-.646-6.723 11.119-5.172 16.032-3.232 4.655 1.811 6.465 5.043 9.051 5.948 3.491-6.465 6.982-16.032 10.731-20.3-.641 5.558-.771 12.152-2.064 17.712zm-674.003-24.695c-8.275 9.438-11.766 28.057-2.198 39.047 2.974 3.361 8.146 5.947 15.515 8.016 5.431 1.552 14.998 2.974 14.998 8.533-.129 9.826-19.394 3.879-24.048 1.034-1.164-.646-2.844-2.456-4.267-3.749-1.164-.905-2.845-3.62-3.75-2.198-4.396 8.146-8.921 16.162-12.283 25.212 12.024 5.948 24.824 12.154 40.21 11.249 19.265-1.034 37.236-13.446 39.046-31.548 2.069-19.911-10.214-26.634-24.048-30.513-5.818-1.681-12.024-2.845-12.283-6.465-.129-2.456 2.327-4.784 4.784-5.301 9.826-2.198 19.006 6.594 23.014 8.533 3.75-8.921 8.663-16.679 12.283-25.729-20.557-12.8-52.492-12.412-66.973 3.879zm163.297 13.446c-5.301 6.724-10.861 22.109-9.05 35.814 2.715 21.333 23.014 37.883 48.226 38.012 23.014.13 45.77-15.645 48.226-41.244 1.034-11.766-2.456-22.497-5.947-28.315-8.017-13.705-24.178-24.437-47.062-21.979-16.292 1.809-27.928 9.696-34.393 17.712zm-88.824-16.032c-.646.259-1.034.646-1.034 1.552-3.232 28.573-7.758 58.569-10.214 86.238h31.03c2.457-9.826 2.198-22.368 4.784-32.064 5.948.388 13.188-.646 18.23.517-1.422 10.215-2.715 20.558-3.75 31.03 9.309.905 22.238.905 31.547 0 3.879-28.832 7.37-57.923 10.731-87.272-10.473 0-21.075 0-31.547 0-1.81 9.697-1.939 20.945-4.267 29.996-5.948-.388-13.188.646-18.23-.518 1.034-9.826 2.974-18.747 3.232-29.479-10.214 0-20.427 0-30.512 0zm252.121 46.028c12.541-13.317 2.585-36.331-8.534-42.278-14.093-7.499-37.236-1.939-57.276-3.75-.646.259-1.034.646-1.034 1.552-3.361 28.444-7.887 58.44-10.214 86.238h31.03c2.456-9.697 2.327-21.979 3.232-33.229 3.361 11.637 7.369 22.626 11.766 33.229h33.745c-5.172-12.541-12.93-22.497-18.23-34.78 7.24-1.293 11.895-3.103 15.515-6.982zm16.032-46.028c-4.913 28.186-7.629 58.312-11.249 87.79h58.312c1.293-7.628 1.81-16.032 3.232-23.531-8.792-.388-18.877.775-26.764-.518.388-3.361-.13-7.628 1.551-9.696h23.015c.775-7.241 1.81-14.223 2.715-21.463-7.628-.388-16.808.646-23.531-.518.646-2.974.388-6.853 1.552-9.05h25.212c1.034-7.499 2.198-14.869 2.716-23.015-18.878.001-37.755.001-56.761.001zm401.584 0c-4.009 28.444-8.017 59.733-10.731 87.79h57.794c1.81-7.111 2.197-15.645 3.232-23.531-8.792-.388-18.877.646-26.764-.518.904-2.844.388-7.111 1.551-9.696h23.531c.389-7.629 1.552-14.61 2.716-21.463-7.629-.388-16.809.775-23.531-.518.129-3.232.388-6.465 1.034-9.05h25.212c1.681-7.111 2.327-15.128 3.232-23.015-19.135.001-38.27.001-57.276.001zm124.638 6.981c-12.153-10.343-42.667-6.076-62.577-6.981-3.879 28.962-7.499 58.182-10.731 87.79h31.547c.646-7.24 2.457-16.032 2.716-24.049.129-2.974-.905-6.853.517-9.05 2.586 12.282 7.499 22.108 11.249 33.228h34.263c-5.689-12.153-12.93-22.755-18.748-34.779 25.082-1.811 26.762-33.488 11.764-46.159zm-401.972 2.586c.259-.388 1.293-2.586 0-2.715.259 1.035-1.551 2.327 0 2.715zm207.127 26.764c2.586 1.681 3.491 5.172 5.302 7.499-.259-3.232.905-5.172.517-8.533-1.551.517-3.749-.129-5.819 1.034zm-149.849 12.283c.129-1.034 1.939-2.974.517-3.75.258 1.423-2.199 2.845-.517 3.75zm81.842 6.981c1.423.388 3.232-2.844 1.034-2.715.13 1.423-.776 1.681-1.034 2.715zm-283.152 3.233c1.423 1.293 1.681 3.62 3.232 4.784-.259-2.068 2.068-6.594-.518-7.499-.774 1.034-2.326 1.422-2.714 2.715zm109.253 41.762c14.609-.259 28.186.388 42.278.518-.775-4.655 1.552-9.18 0-12.8-.646 2.715-1.681 5.042-3.232 6.981-10.343.646-24.048 1.293-33.745-.518-1.164-2.456-.129-7.11-2.198-8.533-.647 5.043-2.327 9.31-3.103 14.352zm-224.324 26.763c4.784 1.034 29.22 7.37 28.961-1.552-.129-4.783-9.955-5.56-17.066-6.464-8.404-1.035-14.869-2.716-20.299-3.75-6.594-1.163-14.481-1.422-21.98-2.198-7.887-.775-15.773-2.197-22.497-1.551-7.37.646-20.946 3.49-21.463 10.214-.646 9.696 18.877 15.645 31.547 16.549 7.499.518 15.645-.388 16.032-5.947.259-3.749-3.491-3.232-3.232-8.016 8.276-4.137 19.784.647 29.997 2.715zm-130.585-2.068c-4.138 1.939-11.249 1.034-11.249 5.301 5.689-2.845 14.998-.259 16.549-9.051-2.197.518-2.843 2.586-5.3 3.75zm556.735 7.499c6.335.388 16.808.259 16.549-5.301-.129-3.75-8.791-5.561-11.766-5.948-9.955-1.034-20.945.646-23.014 6.982 2.199 3.879 11.12 3.749 18.231 4.267zm-373.656-10.215c-6.595-.258-16.162-1.034-14.998 5.302 6.464 4.783 25.212 5.817 28.314-2.716-2.843-1.939-8.015-2.327-13.316-2.586zm397.188 5.818c3.491 3.75 17.842 4.396 19.265-1.552-2.717-2.973-19.137-5.688-19.265 1.552zm-336.809 19.265c-4.913.776-22.496-2.586-24.048 3.232-1.164 4.267 4.267 9.31 8.533 10.214 5.301 1.035 11.119-1.681 16.55-1.551 10.73.129 19.264 5.172 27.28 4.267 5.56-.646 11.507-5.56 11.249-10.731-.518-8.274-17.973-10.603-25.213-9.697-5.559.905-8.533 3.491-14.351 4.266zm360.34.647c.259-1.939 4.913-3.749 1.552-2.715-4.009.517-6.853 2.068-8.533 4.784 2.068 2.327 6.335 5.43 10.214 4.267-2.974-.906-3.751-3.104-3.233-6.336zm17.713-1.681c-6.206-.388-14.352-2.198-15.127 3.491 3.749-.646 7.628-1.423 12.153-1.423 3.62 0 6.853 2.975 10.99-1.551-2.069-.905-4.784-.258-8.016-.517zm-319.095 18.748c4.654 5.171 22.497 5.688 24.565-2.198-4.395-3.233-23.79-6.724-24.565 2.198zm98.004 11.248c2.457 4.525 7.758 4.008 13.964 4.267 12.412.646 25.471 4.267 29.996-5.301-6.594-10.86-38.659-10.473-43.96 1.034zm-121.019 12.8c2.328.905 4.655 0 7.758-.259 5.301-.517 10.603 2.845 15.257-1.293-6.465-.388-19.265-3.49-23.015 1.552zm-6.981 2.715c.776 1.552 4.008 3.362 5.947 2.198-2.974-.646-.775-6.335-1.034-6.981-1.939 1.292-4.913 1.68-4.913 4.783z" fill="#fff"/><path d="m761.406 569.019c-3.75 1.163-8.017-1.939-10.215-4.267 1.682-2.845 4.655-4.267 8.534-4.784 3.361-1.034-1.293.775-1.552 2.715-.517 3.232.26 5.43 3.233 6.336z" fill="none"/><path d="m431.58 601.729c.258.646-1.811 6.335 1.034 6.981-1.811 1.293-5.172-.517-5.947-2.198.129-3.102 3.103-3.49 4.913-4.783z" fill="none"/><path d="m287.03 453.301c-6.465-11.507-24.048 5.947-12.283 14.998 10.473 4.008 16.162-8.146 12.283-14.998z" fill="none"/><path d="m973.576 407.66c1.422 0 2.844.389 4.267 1.164 1.422.775 2.456 1.811 3.231 3.232.776 1.422 1.164 2.845 1.164 4.267s-.388 2.845-1.164 4.267c-.775 1.422-1.81 2.457-3.231 3.232-1.423.775-2.845 1.164-4.267 1.164-1.423 0-2.845-.389-4.268-1.164-1.422-.775-2.456-1.811-3.231-3.232-.776-1.422-1.164-2.845-1.164-4.267 0-1.552.388-2.974 1.164-4.267.775-1.422 1.81-2.457 3.231-3.232 1.423-.775 2.845-1.164 4.268-1.164zm0 1.423c-1.164 0-2.328.259-3.491.905-1.164.646-2.069 1.551-2.716 2.586-.646 1.163-.904 2.327-.904 3.62s.259 2.456.904 3.49c.646 1.164 1.552 2.069 2.716 2.586 1.163.646 2.327.905 3.62.905s2.457-.259 3.62-.905c1.164-.646 2.068-1.552 2.586-2.586.646-1.163.905-2.327.905-3.49 0-1.293-.259-2.457-.905-3.62-.646-1.164-1.552-2.069-2.715-2.586-1.293-.646-2.457-.905-3.62-.905zm-3.75 11.895v-9.18h3.232c1.034 0 1.811.13 2.327.259.518.129.905.518 1.164.905s.388.904.388 1.293c0 .646-.259 1.293-.775 1.81-.518.518-1.164.776-1.939.905.388.129.646.259.775.518.388.388.775 1.034 1.422 1.81l1.164 1.811h-1.811l-.775-1.423c-.646-1.163-1.164-1.81-1.552-2.197-.259-.259-.646-.259-1.163-.259h-.905v3.879h-1.552zm1.422-5.172h1.811c.905 0 1.422-.129 1.811-.388.258-.259.517-.646.517-1.034 0-.259-.129-.517-.259-.775-.129-.259-.388-.388-.646-.518-.258-.129-.775-.129-1.551-.129h-1.682v2.844z" fill="none"/><path d="m973.576 407.66c1.422 0 2.844.389 4.267 1.164 1.422.775 2.456 1.811 3.231 3.232.776 1.422 1.164 2.845 1.164 4.267s-.388 2.845-1.164 4.267c-.775 1.422-1.81 2.457-3.231 3.232-1.423.775-2.845 1.164-4.267 1.164-1.423 0-2.845-.389-4.268-1.164-1.422-.775-2.456-1.811-3.231-3.232-.776-1.422-1.164-2.845-1.164-4.267 0-1.552.388-2.974 1.164-4.267.775-1.422 1.81-2.457 3.231-3.232 1.423-.775 2.845-1.164 4.268-1.164zm0 1.423c-1.164 0-2.328.259-3.491.905-1.164.646-2.069 1.551-2.716 2.586-.646 1.163-.904 2.327-.904 3.62s.259 2.456.904 3.49c.646 1.164 1.552 2.069 2.716 2.586 1.163.646 2.327.905 3.62.905s2.457-.259 3.62-.905c1.164-.646 2.068-1.552 2.586-2.586.646-1.163.905-2.327.905-3.49 0-1.293-.259-2.457-.905-3.62-.646-1.164-1.552-2.069-2.715-2.586-1.293-.646-2.457-.905-3.62-.905zm-3.75 11.895v-9.18h3.232c1.034 0 1.811.13 2.327.259.518.129.905.518 1.164.905s.388.904.388 1.293c0 .646-.259 1.293-.775 1.81-.518.518-1.164.776-1.939.905.388.129.646.259.775.518.388.388.775 1.034 1.422 1.81l1.164 1.811h-1.811l-.775-1.423c-.646-1.163-1.164-1.81-1.552-2.197-.259-.259-.646-.259-1.163-.259h-.905v3.879h-1.552zm1.422-5.172h1.811c.905 0 1.422-.129 1.811-.388.258-.259.517-.646.517-1.034 0-.259-.129-.517-.259-.775-.129-.259-.388-.388-.646-.518-.258-.129-.775-.129-1.551-.129h-1.682v2.844z" fill="#fff"/></svg>